<svg data-v-423bf9ae="" xmlns="http://www.w3.org/2000/svg" viewBox="0 0 439 90" class="iconLeft"><!----><!----><!----><g data-v-423bf9ae="" id="5505fb7a-7a49-4790-9217-e97771ea29c0" fill="white" transform="matrix(5.660377154786554,0,0,5.660377154786554,112.77325687203873,-1.4716968141700448)"><path d="M0.59 10.14L0.80 12.64C1.51 13.30 2.90 13.51 3.82 13.51C6.62 13.48 7.46 11.97 7.46 10.51C7.46 8.67 6.09 7.95 4.82 7.42C3.89 7.04 2.73 6.54 2.73 5.47C2.73 4.61 3.35 4.05 4.19 4.05C5.08 4.05 5.92 4.68 6.31 6.31L6.82 6.31L6.82 4.02C6.09 3.57 5.05 3.40 4.20 3.40C1.85 3.40 0.71 4.62 0.71 6.27C0.71 8.01 2.27 8.76 3.50 9.28C4.77 9.81 5.36 10.44 5.36 11.34C5.35 12.38 4.68 12.87 3.77 12.87C2.70 12.87 1.64 11.89 1.11 10.14ZM8.33 9.87C8.33 12.11 9.41 13.47 11.96 13.47C14.50 13.47 15.58 12.11 15.58 9.87C15.58 7.63 14.50 6.27 11.96 6.27C9.41 6.27 8.33 7.63 8.33 9.87ZM10.56 9.87C10.56 7.99 10.96 6.92 11.96 6.92C12.95 6.92 13.36 7.99 13.36 9.87C13.36 11.75 12.95 12.82 11.96 12.82C10.96 12.82 10.56 11.75 10.56 9.87ZM16.52 9.93C16.52 12.28 17.84 13.47 19.81 13.47C20.97 13.47 22.27 13.08 22.82 11.34L22.33 11.12C21.85 12.07 21.31 12.39 20.54 12.39C19.63 12.39 18.75 11.77 18.75 9.59C18.75 7.71 19.35 6.92 19.94 6.92C20.43 6.92 20.66 7.35 20.90 8.19C21 8.51 21.21 8.68 21.57 8.68C22.06 8.68 22.74 8.43 22.74 7.81C22.74 6.82 21.34 6.27 20.06 6.27C18.97 6.27 18.10 6.58 17.47 7.21C16.88 7.80 16.52 8.71 16.52 9.93ZM23.94 4.44C23.94 5.11 24.43 5.67 25.21 5.67C25.98 5.67 26.50 5.11 26.50 4.44C26.50 3.78 26.01 3.22 25.21 3.22C24.43 3.22 23.94 3.78 23.94 4.44ZM23.32 13.30L27.26 13.30L27.26 12.77C26.46 12.73 26.35 12.67 26.35 12.08L26.35 6.36L26.25 6.27L23.41 6.68L23.41 7.18L23.90 7.25C24.12 7.28 24.23 7.41 24.23 7.97L24.23 12.08C24.23 12.67 24.12 12.73 23.32 12.77ZM27.96 11.44C27.96 12.49 28.66 13.47 30.07 13.47C30.97 13.47 31.58 12.98 32.07 12.66C32.26 13.09 32.49 13.47 33.17 13.47C33.89 13.47 34.78 13.23 35.24 13.05L35.20 12.59C35.01 12.60 34.73 12.59 34.52 12.52C34.34 12.46 34.08 12.29 34.08 11.47L34.08 8.23C34.08 7.36 33.94 6.27 31.46 6.27C29.40 6.27 28.14 7.08 28.14 7.99C28.14 8.62 29.04 8.88 29.40 8.88C29.71 8.88 29.86 8.65 29.97 8.32C30.37 7.13 30.81 6.92 31.21 6.92C31.61 6.92 32.02 7.15 32.02 7.95L32.02 8.69C31.53 9.03 30.35 9.38 29.44 9.69C28.34 10.07 27.96 10.64 27.96 11.44ZM30.11 11.20C30.11 10.54 30.34 10.22 30.76 9.98C31.19 9.74 31.68 9.55 32.02 9.39L32.02 11.42C31.99 12.18 31.53 12.38 31.15 12.38C30.60 12.38 30.11 11.94 30.11 11.20ZM35.27 13.30L39.20 13.30L39.20 12.77C38.40 12.73 38.29 12.67 38.29 12.08L38.29 3.00L38.19 2.91L35.35 3.29L35.35 3.79L35.84 3.88C36.06 3.92 36.18 4.05 36.18 4.61L36.18 12.08C36.18 12.67 36.06 12.73 35.27 12.77ZM40.31 4.44C40.31 5.11 40.80 5.67 41.58 5.67C42.35 5.67 42.87 5.11 42.87 4.44C42.87 3.78 42.38 3.22 41.58 3.22C40.80 3.22 40.31 3.78 40.31 4.44ZM39.69 13.30L43.62 13.30L43.62 12.77C42.83 12.73 42.71 12.67 42.71 12.08L42.71 6.36L42.62 6.27L39.77 6.68L39.77 7.18L40.26 7.25C40.49 7.28 40.60 7.41 40.60 7.97L40.60 12.08C40.60 12.67 40.49 12.73 39.69 12.77ZM43.74 13.01L43.90 13.30L50.30 13.30L50.47 10.78L49.94 10.78C49.53 12.22 49.18 12.66 47.73 12.66L46.37 12.66C47.68 10.68 49.04 8.69 50.41 6.72L50.26 6.44L44.35 6.44L44.35 8.79L44.90 8.79C45.18 7.63 45.30 7.08 46.63 7.08L47.78 7.08C46.47 9.06 45.11 11.03 43.74 13.01ZM50.90 9.87C50.90 11.77 51.73 13.47 54.33 13.47C56 13.47 56.91 12.66 57.39 11.42L56.88 11.14C56.46 11.94 55.86 12.39 55.01 12.39C53.61 12.39 53.13 11.24 53.13 9.77L56.74 9.77C57.25 9.77 57.50 9.63 57.50 9.18C57.50 8.04 57.06 6.27 54.36 6.27C51.84 6.27 50.90 7.91 50.90 9.87ZM53.13 9.10C53.13 8.09 53.40 6.92 54.31 6.92C55.16 6.92 55.30 7.98 55.30 8.64C55.30 9.02 55.19 9.10 54.87 9.10Z"></path></g><!----><g data-v-423bf9ae="" id="5c59454b-9c55-499b-93eb-ff1768d7145c" transform="matrix(1.067750424851613,0,0,1.067750424851613,-4.395127043094419,-8.542003398812902)" stroke="none" fill="white"><path d="M62.7 25.8c-9.4-2.4-14.7-1.2-23.2-.7C18.4 8.6 5 8 5 8c-.1 19.3 7.3 33.7 9.1 36-2.1 1.3-7.8 12-7.8 12s7.3-3.7 6.4-2.2c-.9 1.5-1.9 5.1-1.9 5.1s3.4.1 6.2-.4c-1 1.9-1.2 5.2-.9 6.5 3.1-1.9 5.9-1.3 5.9-1.3s-.7 3.3-.9 5.4c.6-.6 3-.9 3.7-1.2 1.2.1.6.7 0 4.5 4.3.1 12.6 5.5 13.4 10.4.7 4.9 3.9 7 7.4 8.2 4.6 2.7 9.1.4 10.1-.1 1-.6.4-1.5-.1-.9-.6.6-3.6.9-4.3.1-.7-.7-.3-1 1.3-.9 1.6.1 2.1-1.3 3-2.5-.4.3-1.3.3-2.4-.3-.9-4.9 3.6-.7 3.3-5.2-.3-4.5-3.9-3.9-4.8-3.4-1-1-2.2-.7-3.9-1 .7-3.3 2.1-13.8-1.9-26S33.4 40.1 31.6 40.1c-.3-1 .1-2.8 1.6-7-4-8-14.6-16.1-20.8-20.1 10.4 1.9 18.7 8.5 27.5 14.1 18.1.4 23.6 4.6 28.1 7.1 3.3-4.9 22.1-18.4 26.6-21.1-11.7-.2-27.2 9-31.9 12.7zM33.6 49.2c1.2.3 2.1.7 3 1.1h-.1s-1.8 3.4.7 4.5c1.3.6 2.2-.5 2.6-1.8 1.2 1.8.9 3.4.9 3.4-8.4 1-7.5-4.5-7.1-7.2zM95 13l-7.6 5.5c1 5.8-2.5 11.7-6.7 20.2C96 27.9 95 13 95 13zM63.9 47.7c-4-.4-6.7 4.6-6.2 8.1.4 3.6 1.8 9.9.7 12.2 1.2-2.4 3.3-5.6 2.4-12-.2-1.2 0-2.1.4-2.9.3 1 1 1.8 2 1.8 1.1 0 2.1-1.2 2.1-2.7 0-.7-.2-1.4-.6-1.9 2.2-1 4.7-1.5 5.3-2.7-.1.1-2.7.5-6.1.1z"></path></g><!----></svg>