<svg data-v-423bf9ae="" xmlns="http://www.w3.org/2000/svg" viewBox="0 0 293 94" class="iconLeft"><!----><!----><!----><g data-v-423bf9ae="" id="cf4a1958-1206-4239-b5c2-e8154b4ec0aa" fill="#e4e9ff" transform="matrix(5.7526364568010235,0,0,5.7526364568010235,77.03382740818213,15.10532364556099)"><path d="M3.12 10.50L3.12 0.49L1.12 0.49L1.12 10.50L3.12 10.50L3.12 10.50ZM7.38 5.05L7.38 5.05L12.45 10.71L12.98 10.71L12.98 0.50L10.96 0.50L10.96 6.16L5.91 0.28L5.38 0.28L5.38 10.50L7.38 10.50L7.38 5.05ZM15.23 10.50L17.23 10.50C17.23 9.21 17.23 7.87 17.23 6.58L19.89 10.50L22.37 10.50L18.84 5.43L22.09 0.49L19.75 0.49L17.23 4.48C17.23 3.15 17.23 1.82 17.23 0.49L15.23 0.49L15.23 10.50L15.23 10.50ZM23.69 0.49L23.69 0.49L23.69 10.50L28.87 10.50L28.87 8.50L25.69 8.50L25.69 0.49L23.69 0.49ZM31.95 10.50L31.95 10.50L33.94 10.50L33.94 5.99L37.44 0.49L34.99 0.49L32.94 3.93L30.90 0.49L28.46 0.49L31.95 5.99L31.95 10.50Z"></path></g><!----><g data-v-423bf9ae="" id="36c9a0b0-4543-480a-a7d6-b4f80676af2d" transform="matrix(1.018888939751519,0,0,1.018888939751519,-19.095392910003525,-3.791615978664936)" stroke="none" fill="#e4e9ff"><path d="M31.2 31.3c4.3 0 11.8-1.4 13.7 5.4.6 2.2 1.4 3.6 2.1 4.6-.2.5-.4 1-.4 1.6 0 1.8 1.5 3.3 3.3 3.3s3.3-1.5 3.3-3.3c0-.6-.2-1.1-.4-1.6.7-1 1.4-2.4 2.1-4.6 2-6.8 9.5-5.4 13.7-5.4s2.9-7.1 2.9-15.8S61.5 4 61.5 4l-1.1 10.8H39.7L38.5 4S28.4 6.8 28.4 15.5 27 31.3 31.2 31.3zM63.7 7.8s4.8 2.3 4.7 5.5v.6H63l.7-6.1zm-2.7 20c-2.3 3.7-4.9 1.5-4.9 1.5 1.9-3.1 4.9-1.5 4.9-1.5zm-17 1.5s-2.6 2.3-4.9-1.5c-.1 0 2.9-1.6 4.9 1.5zM36.2 7.8l.7 6.1h-5.4v-.6c0-3.3 4.7-5.5 4.7-5.5z"></path><path d="M34 37.2c-4.7 4.7 8.9 39.6 8.9 39.6L50 64.6l7 12.2s13.7-34.9 8.9-39.6L49.8 51.3 34 37.2z"></path><path d="M66.7 55.3c1.6 2.6 2.5 5.5 2.5 8.5 0 12.2-14.5 22.1-32.4 22.1-6.6 0-12.8-1.4-17.9-3.7 4.9 7.9 16.5 13.5 29.9 13.5 17.9 0 32.4-9.9 32.4-22.1 0-7.5-5.7-14.3-14.5-18.3zM34.2 91.7c-7-2.1-11.2-6.4-11.2-6.4 4.8 1.8 11.2 2.3 11.2 2.3v4.1z"></path></g><!----></svg>