<svg data-v-423bf9ae="" xmlns="http://www.w3.org/2000/svg" viewBox="-5 -5 100 100" class="iconLeft"><g data-v-423bf9ae="" id="7381a87c-1914-476b-be6c-f7ffbaa01072" transform="matrix(1.067750424851613,0,0,1.067750424851613,-4.395127043094419,-8.542003398812902)" stroke="none" fill="#641f36"><path d="M62.7 25.8c-9.4-2.4-14.7-1.2-23.2-.7C18.4 8.6 5 8 5 8c-.1 19.3 7.3 33.7 9.1 36-2.1 1.3-7.8 12-7.8 12s7.3-3.7 6.4-2.2c-.9 1.5-1.9 5.1-1.9 5.1s3.4.1 6.2-.4c-1 1.9-1.2 5.2-.9 6.5 3.1-1.9 5.9-1.3 5.9-1.3s-.7 3.3-.9 5.4c.6-.6 3-.9 3.7-1.2 1.2.1.6.7 0 4.5 4.3.1 12.6 5.5 13.4 10.4.7 4.9 3.9 7 7.4 8.2 4.6 2.7 9.1.4 10.1-.1 1-.6.4-1.5-.1-.9-.6.6-3.6.9-4.3.1-.7-.7-.3-1 1.3-.9 1.6.1 2.1-1.3 3-2.5-.4.3-1.3.3-2.4-.3-.9-4.9 3.6-.7 3.3-5.2-.3-4.5-3.9-3.9-4.8-3.4-1-1-2.2-.7-3.9-1 .7-3.3 2.1-13.8-1.9-26S33.4 40.1 31.6 40.1c-.3-1 .1-2.8 1.6-7-4-8-14.6-16.1-20.8-20.1 10.4 1.9 18.7 8.5 27.5 14.1 18.1.4 23.6 4.6 28.1 7.1 3.3-4.9 22.1-18.4 26.6-21.1-11.7-.2-27.2 9-31.9 12.7zM33.6 49.2c1.2.3 2.1.7 3 1.1h-.1s-1.8 3.4.7 4.5c1.3.6 2.2-.5 2.6-1.8 1.2 1.8.9 3.4.9 3.4-8.4 1-7.5-4.5-7.1-7.2zM95 13l-7.6 5.5c1 5.8-2.5 11.7-6.7 20.2C96 27.9 95 13 95 13zM63.9 47.7c-4-.4-6.7 4.6-6.2 8.1.4 3.6 1.8 9.9.7 12.2 1.2-2.4 3.3-5.6 2.4-12-.2-1.2 0-2.1.4-2.9.3 1 1 1.8 2 1.8 1.1 0 2.1-1.2 2.1-2.7 0-.7-.2-1.4-.6-1.9 2.2-1 4.7-1.5 5.3-2.7-.1.1-2.7.5-6.1.1z"></path></g><!----></svg>